<svg width="18" height="18" viewBox="0 0 18 18" fill="none" xmlns="http://www.w3.org/2000/svg">
<path d="M6.375 13.797V11.625H4.875C4.67609 11.625 4.48532 11.546 4.34467 11.4053C4.20402 11.2647 4.125 11.0739 4.125 10.875V5.625C4.125 5.42609 4.20402 5.23532 4.34467 5.09467C4.48532 4.95402 4.67609 4.875 4.875 4.875H13.125C13.3239 4.875 13.5147 4.95402 13.6553 5.09467C13.796 5.23532 13.875 5.42609 13.875 5.625V10.875C13.875 11.0739 13.796 11.2647 13.6553 11.4053C13.5147 11.546 13.3239 11.625 13.125 11.625H9L6.69525 13.9297C6.66903 13.956 6.63559 13.974 6.59917 13.9812C6.56276 13.9885 6.525 13.9848 6.4907 13.9705C6.4564 13.9563 6.42709 13.9322 6.40649 13.9013C6.38589 13.8704 6.37493 13.8341 6.375 13.797Z" stroke="black"/>
<path d="M6.375 9.375H11.625M6.375 7.125H11.625" stroke="black" stroke-linecap="round"/>
</svg>
