<svg width="18" height="18" viewBox="0 0 18 18" fill="none" xmlns="http://www.w3.org/2000/svg">
<path d="M7.93891 10.0154L8.58655 9.64116L7.74667 8.93466L7.93891 10.0154Z" fill="black"/>
<path d="M15.9405 8.9928C15.9405 8.8335 15.8622 8.69346 15.743 8.60562L15.7455 8.6013L14.0672 7.63236L15.0333 5.95908L15.03 5.9571C15.0605 5.88812 15.0743 5.81294 15.0703 5.73765C15.0663 5.66235 15.0447 5.58905 15.0072 5.52366C14.9692 5.45837 14.9165 5.40294 14.8532 5.36185C14.7898 5.32076 14.7177 5.29516 14.6427 5.28714V5.28246H12.7044V3.3498H12.7005C12.6923 3.27483 12.6667 3.20282 12.6256 3.13959C12.5845 3.07637 12.5291 3.02369 12.4639 2.98584C12.3985 2.94809 12.325 2.92638 12.2496 2.92247C12.1741 2.91856 12.0988 2.93256 12.0298 2.96334L12.0274 2.9592L10.3209 3.94452L9.37585 2.3076L9.37243 2.30958C9.32793 2.24871 9.26972 2.19917 9.20252 2.16496C9.13532 2.13075 9.06102 2.11283 8.98561 2.11266C8.82631 2.11266 8.68609 2.19096 8.59843 2.31012L8.59411 2.3076L7.63345 3.97152L5.97925 3.01644L5.97727 3.01986C5.9083 2.9894 5.83312 2.9756 5.75783 2.97957C5.68253 2.98354 5.60922 3.00517 5.54383 3.04272C5.47852 3.08061 5.42305 3.13335 5.38193 3.19668C5.3408 3.26001 5.31518 3.33214 5.30713 3.40722H5.30227V5.32854H3.39211V5.33232C3.31715 5.34042 3.24514 5.36606 3.18191 5.40715C3.11868 5.44823 3.06601 5.50362 3.02815 5.56884C2.99058 5.63428 2.96895 5.70766 2.96501 5.78303C2.96107 5.85839 2.97493 5.93363 3.00547 6.00264L3.00133 6.00516L3.94561 7.64082L2.25469 8.61714L2.25667 8.62056C2.19581 8.66506 2.14627 8.72327 2.11206 8.79047C2.07785 8.85767 2.05993 8.93197 2.05975 9.00738C2.05975 9.16668 2.13805 9.3069 2.25721 9.39456L2.25469 9.39888L3.93301 10.3678L2.96695 12.0411L2.97019 12.0429C2.93974 12.1119 2.92593 12.187 2.92991 12.2623C2.93388 12.3376 2.95551 12.4109 2.99305 12.4763C3.03096 12.5416 3.08372 12.597 3.14705 12.6381C3.21037 12.6792 3.28249 12.7048 3.35755 12.7129V12.7177H5.29561V14.6502H5.29957C5.31613 14.7971 5.39839 14.9346 5.53609 15.0142C5.6016 15.0518 5.67505 15.0734 5.75048 15.0773C5.82592 15.0812 5.90121 15.0673 5.97025 15.0367L5.97259 15.0408L7.67917 14.0555L8.62417 15.6924L8.62759 15.6904C8.6721 15.7513 8.73031 15.8008 8.79751 15.835C8.8647 15.8692 8.93901 15.8872 9.01441 15.8873C9.17371 15.8873 9.31393 15.809 9.40159 15.6901L9.40573 15.6924L10.3664 14.0285L12.0208 14.9836L12.0228 14.9801C12.0917 15.0106 12.1669 15.0244 12.2422 15.0204C12.3175 15.0165 12.3908 14.9948 12.4562 14.9573C12.5216 14.9195 12.5771 14.8668 12.6183 14.8034C12.6594 14.7401 12.685 14.6679 12.6929 14.5928H12.6978V12.6716H14.6081V12.6679C14.6831 12.6597 14.7551 12.6341 14.8183 12.593C14.8815 12.5519 14.9342 12.4965 14.9721 12.4313C15.0096 12.3659 15.0313 12.2925 15.0352 12.2171C15.0391 12.1418 15.0253 12.0665 14.9947 11.9975L14.9989 11.9952L14.0546 10.3595L15.7455 9.38322L15.7435 9.3798C15.8044 9.33527 15.854 9.27703 15.8882 9.2098C15.9224 9.14257 15.9403 9.06823 15.9405 8.9928ZM6.75667 11.7355C6.35527 11.9673 5.99131 11.999 5.68189 11.9158L5.72527 11.4304C5.95963 11.4982 6.26257 11.4979 6.54877 11.3324C6.79483 11.1904 6.84721 11.0147 6.77719 10.8936C6.56857 10.5325 5.51863 11.475 5.06737 10.6936C4.86793 10.348 5.00131 9.88884 5.49037 9.6066C5.82031 9.41598 6.15187 9.35766 6.46705 9.42876L6.41143 9.9009C6.15349 9.84258 5.88799 9.90018 5.67631 10.0222C5.48947 10.1302 5.43025 10.2722 5.50225 10.397C5.69107 10.7239 6.75595 9.8145 7.20343 10.5894C7.42285 10.969 7.31431 11.4138 6.75667 11.7355ZM9.26641 10.2368L8.93269 9.96048L8.04223 10.4746L8.11441 10.9019L7.61311 11.1911L7.21441 8.6526L7.76863 8.33274L9.76771 9.94752L9.26641 10.2368ZM9.94195 9.8469L8.74297 7.77006L9.18829 7.51284L10.1626 9.20034L11.0407 8.69346L11.2655 9.0828L9.94195 9.8469ZM11.5641 8.91036L10.3651 6.8337L11.8347 5.985L12.0593 6.37416L11.032 6.96744L11.2837 7.4034L12.2892 6.82272L12.5138 7.21188L11.5083 7.79238L11.7816 8.26578L12.809 7.6725L13.0338 8.06166L11.5641 8.91036Z" fill="black"/>
</svg>
