<svg width="18" height="18" viewBox="0 0 18 18" fill="none" xmlns="http://www.w3.org/2000/svg">
<path fill-rule="evenodd" clip-rule="evenodd" d="M9 0.75C8.785 0.749971 8.57251 0.796161 8.37692 0.88544C8.18134 0.974719 8.00723 1.105 7.8664 1.26745C7.72557 1.42991 7.6213 1.62074 7.56068 1.82701C7.50005 2.03328 7.48447 2.25018 7.515 2.463C6.42778 2.78362 5.47353 3.44751 4.7949 4.35542C4.11626 5.26333 3.7497 6.36649 3.75 7.5V13.5H3C2.80109 13.5 2.61032 13.579 2.46967 13.7197C2.32902 13.8603 2.25 14.0511 2.25 14.25C2.25 14.4489 2.32902 14.6397 2.46967 14.7803C2.61032 14.921 2.80109 15 3 15H15C15.1989 15 15.3897 14.921 15.5303 14.7803C15.671 14.6397 15.75 14.4489 15.75 14.25C15.75 14.0511 15.671 13.8603 15.5303 13.7197C15.3897 13.579 15.1989 13.5 15 13.5H14.25V7.5C14.2503 6.36649 13.8837 5.26333 13.2051 4.35542C12.5265 3.44751 11.5722 2.78362 10.485 2.463C10.495 2.393 10.5 2.322 10.5 2.25C10.5 1.85218 10.342 1.47064 10.0607 1.18934C9.77936 0.908035 9.39782 0.75 9 0.75ZM10.5 16.5C10.5 16.6989 10.421 16.8897 10.2803 17.0303C10.1397 17.171 9.94891 17.25 9.75 17.25H8.25C8.05109 17.25 7.86032 17.171 7.71967 17.0303C7.57902 16.8897 7.5 16.6989 7.5 16.5C7.5 16.3011 7.57902 16.1103 7.71967 15.9697C7.86032 15.829 8.05109 15.75 8.25 15.75H9.75C9.94891 15.75 10.1397 15.829 10.2803 15.9697C10.421 16.1103 10.5 16.3011 10.5 16.5Z" fill="#0FB395"/>
</svg>
