<svg width="18" height="18" viewBox="0 0 18 18" fill="none" xmlns="http://www.w3.org/2000/svg">
<path d="M9.75 2.25C7.95979 2.25 6.2429 2.96116 4.97703 4.22703C3.71116 5.4929 3 7.20979 3 9H0.75L3.6675 11.9175L3.72 12.0225L6.75 9H4.5C4.5 6.0975 6.8475 3.75 9.75 3.75C12.6525 3.75 15 6.0975 15 9C15 11.9025 12.6525 14.25 9.75 14.25C8.3025 14.25 6.99 13.6575 6.045 12.705L4.98 13.77C5.60496 14.3986 6.34825 14.8973 7.16695 15.2371C7.98566 15.577 8.86357 15.7513 9.75 15.75C11.5402 15.75 13.2571 15.0388 14.523 13.773C15.7888 12.5071 16.5 10.7902 16.5 9C16.5 7.20979 15.7888 5.4929 14.523 4.22703C13.2571 2.96116 11.5402 2.25 9.75 2.25ZM9 6V9.75L12.1875 11.64L12.765 10.68L10.125 9.1125V6H9Z" fill="black"/>
</svg>
