<svg width="166" height="166" viewBox="0 0 166 166" fill="none" xmlns="http://www.w3.org/2000/svg">
<mask id="mask0_1_55" style="mask-type:alpha" maskUnits="userSpaceOnUse" x="0" y="0" width="166" height="166">
<rect width="166" height="166" rx="20" fill="#6DA4D6"/>
</mask>
<g mask="url(#mask0_1_55)">
<path d="M-10.8125 59.3757L-4.73539 -5.817L73.9035 -1.00353C74.0597 -1.01035 74.185 -1.00181 74.2813 -0.980404L73.9035 -1.00353C71.9419 -0.917888 65.1245 1.5904 50.1331 11.4379C29.902 24.7272 45.7015 42.8927 36.2778 58.2012C28.7388 70.4479 1.74298 64.087 -10.8125 59.3757Z" fill="#0FB395" stroke="#0FB395"/>
<path d="M169.462 104.379L164.208 169.643L85.5142 165.822C85.3582 165.831 85.2327 165.824 85.1361 165.804L85.5142 165.822C87.4745 165.712 94.2598 163.118 109.126 153.082C129.188 139.539 113.16 121.574 122.39 106.148C129.774 93.8069 156.848 99.8267 169.462 104.379Z" fill="#0FB395" stroke="#0FB395"/>
</g>
</svg>
