<svg width="17" height="17" viewBox="0 0 17 17" fill="none" xmlns="http://www.w3.org/2000/svg">
<path d="M2.83335 14.1667C2.44377 14.1667 2.11038 14.0281 1.83319 13.7509C1.55599 13.4737 1.41716 13.1401 1.41669 12.75V4.25001C1.41669 3.86043 1.55552 3.52704 1.83319 3.24984C2.11085 2.97265 2.44424 2.83382 2.83335 2.83334H14.1667C14.5563 2.83334 14.8899 2.97218 15.1676 3.24984C15.4452 3.52751 15.5838 3.8609 15.5834 4.25001V12.75C15.5834 13.1396 15.4448 13.4732 15.1676 13.7509C14.8904 14.0286 14.5567 14.1671 14.1667 14.1667H2.83335ZM8.50002 9.20834L2.83335 5.66668V12.75H14.1667V5.66668L8.50002 9.20834ZM8.50002 7.79168L14.1667 4.25001H2.83335L8.50002 7.79168ZM2.83335 5.66668V4.25001V12.75V5.66668Z" fill="#0FB395"/>
</svg>
