<svg width="18" height="18" viewBox="0 0 18 18" fill="none" xmlns="http://www.w3.org/2000/svg">
<path d="M13.4625 12.1312L11.325 10.0125L12.3938 8.9625L13.4625 10.0125L16.1063 7.36875L17.175 8.41875L13.4625 12.1312ZM8.25 15.75L5.86875 13.6125C4.96875 12.8 4.19675 12.075 3.55275 11.4375C2.90875 10.8 2.3775 10.2 1.959 9.6375C1.5405 9.075 1.23425 8.53125 1.04025 8.00625C0.846252 7.48125 0.749502 6.93125 0.750002 6.35625C0.750002 5.18125 1.14375 4.20325 1.93125 3.42225C2.71875 2.64125 3.7 2.2505 4.875 2.25C5.525 2.25 6.14375 2.3875 6.73125 2.6625C7.31875 2.9375 7.825 3.325 8.25 3.825C8.675 3.325 9.18125 2.9375 9.76875 2.6625C10.3563 2.3875 10.975 2.25 11.625 2.25C12.6375 2.25 13.4875 2.5345 14.175 3.1035C14.8625 3.6725 15.3313 4.388 15.5813 5.25H13.9875C13.7625 4.75 13.4313 4.375 12.9938 4.125C12.5563 3.875 12.1 3.75 11.625 3.75C10.9875 3.75 10.4375 3.922 9.975 4.266C9.5125 4.61 9.08125 5.063 8.68125 5.625H7.81875C7.43125 5.0625 6.9905 4.6095 6.4965 4.266C6.0025 3.9225 5.462 3.7505 4.875 3.75C4.1625 3.75 3.54675 3.997 3.02775 4.491C2.50875 4.985 2.2495 5.6065 2.25 6.3555C2.25 6.768 2.3375 7.18675 2.5125 7.61175C2.6875 8.03675 3 8.5275 3.45 9.084C3.9 9.6405 4.5125 10.2905 5.2875 11.034C6.0625 11.7775 7.05 12.6745 8.25 13.725C8.575 13.4375 8.95625 13.1063 9.39375 12.7313C9.83125 12.3563 10.1813 12.0438 10.4438 11.7938L10.6125 11.9625L10.9785 12.3285L11.3438 12.6937L11.5125 12.8625C11.2375 13.1125 10.8875 13.422 10.4625 13.791C10.0375 14.16 9.6625 14.488 9.3375 14.775L8.25 15.75Z" fill="black"/>
</svg>
