<svg width="18" height="18" viewBox="0 0 18 18" fill="none" xmlns="http://www.w3.org/2000/svg">
<path d="M7.60126 15.75L7.32976 13.581C7.09026 13.5085 6.83151 13.395 6.55351 13.2405C6.27501 13.0855 6.03826 12.9195 5.84326 12.7425L3.84226 13.5938L2.44351 11.1562L4.17301 9.852C4.15051 9.717 4.13226 9.5775 4.11826 9.4335C4.10326 9.2895 4.09576 9.14975 4.09576 9.01425C4.09576 8.88825 4.10326 8.75575 4.11826 8.61675C4.13226 8.47775 4.15051 8.32125 4.17301 8.14725L2.44351 6.8445L3.84226 4.4355L5.82826 5.2725C6.05226 5.086 6.29476 4.91775 6.55576 4.76775C6.81576 4.61775 7.06901 4.50175 7.31551 4.41975L7.60051 2.25H10.3995L10.6703 4.434C10.9578 4.535 11.2118 4.65075 11.4323 4.78125C11.6528 4.91175 11.88 5.07525 12.114 5.27175L14.1578 4.4355L15.5565 6.84375L13.77 8.19075C13.811 8.34575 13.834 8.488 13.839 8.6175C13.844 8.747 13.8465 8.8745 13.8465 9C13.8465 9.1165 13.8415 9.23925 13.8315 9.36825C13.822 9.49775 13.8 9.65425 13.7655 9.83775L15.5235 11.1562L14.1248 13.5938L12.114 12.7283C11.8805 12.9248 11.6455 13.093 11.409 13.233C11.1725 13.373 10.9263 13.4843 10.6703 13.5668L10.3995 15.75H7.60126ZM8.25001 15H9.71701L9.99376 12.969C10.3718 12.869 10.7118 12.7318 11.0138 12.5573C11.3168 12.3827 11.6248 12.1438 11.9378 11.8403L13.809 12.6375L14.5545 11.3625L12.9128 10.1295C12.9753 9.916 13.0168 9.7195 13.0373 9.54C13.0573 9.361 13.0673 9.181 13.0673 9C13.0673 8.81 13.0573 8.63 13.0373 8.46C13.0173 8.29 12.9758 8.10325 12.9128 7.89975L14.583 6.6375L13.8375 5.3625L11.9235 6.165C11.6965 5.9155 11.3983 5.68175 11.0288 5.46375C10.6588 5.24625 10.3088 5.102 9.97876 5.031L9.75001 3H8.25451L8.02051 5.01675C7.64251 5.09725 7.29501 5.22725 6.97801 5.40675C6.66151 5.58575 6.34651 5.832 6.03301 6.1455L4.16251 5.3625L3.41701 6.6375L5.04376 7.8525C4.98126 8.0205 4.93751 8.203 4.91251 8.4C4.88751 8.597 4.87501 8.802 4.87501 9.015C4.87501 9.205 4.88751 9.39375 4.91251 9.58125C4.93751 9.76875 4.97651 9.95125 5.02951 10.1287L3.41701 11.3625L4.16251 12.6375L6.01876 11.85C6.31326 12.147 6.61876 12.3853 6.93526 12.5648C7.25226 12.7443 7.60926 12.884 8.00626 12.984L8.25001 15ZM8.97976 10.875C9.50276 10.875 9.94601 10.6932 10.3095 10.3298C10.673 9.96625 10.8548 9.523 10.8548 9C10.8548 8.477 10.673 8.03375 10.3095 7.67025C9.94601 7.30675 9.50276 7.125 8.97976 7.125C8.45376 7.125 8.00976 7.30675 7.64776 7.67025C7.28576 8.03375 7.10476 8.477 7.10476 9C7.10476 9.523 7.28576 9.96625 7.64776 10.3298C8.00976 10.6932 8.45376 10.875 8.97976 10.875Z" fill="black"/>
</svg>
