<svg width="14" height="14" viewBox="0 0 14 14" fill="none" xmlns="http://www.w3.org/2000/svg">
<path d="M6.41666 12.25L4.56458 10.5875C3.86458 9.95555 3.26414 9.39167 2.76325 8.89583C2.26236 8.4 1.84916 7.93333 1.52366 7.49583C1.19816 7.05833 0.959969 6.63542 0.80908 6.22708C0.658191 5.81875 0.582941 5.39097 0.58333 4.94375C0.58333 4.02986 0.88958 3.26919 1.50208 2.66175C2.11458 2.05431 2.87777 1.75039 3.79166 1.75C4.29722 1.75 4.77847 1.85461 5.23541 2.06383C5.69236 2.27306 6.08611 2.57192 6.41666 2.96042C6.74722 2.57153 7.14097 2.27267 7.59791 2.06383C8.05486 1.855 8.53611 1.75039 9.04166 1.75C9.86805 1.75 10.5609 2.00044 11.1201 2.50133C11.6793 3.00222 12.0268 3.58789 12.1625 4.25833C11.9681 4.18056 11.7639 4.13194 11.55 4.1125C11.3361 4.09306 11.1174 4.08333 10.8937 4.08333C10.0674 4.08333 9.30902 4.41642 8.61875 5.08258C7.92847 5.74875 7.58333 6.58233 7.58333 7.58333C7.58333 8.05 7.68541 8.52406 7.88958 9.0055C8.09375 9.48694 8.38055 9.87817 8.75 10.1792C8.56527 10.3444 8.32475 10.556 8.02841 10.8138C7.73208 11.0717 7.47677 11.2976 7.2625 11.4917L6.41666 12.25ZM10.4708 9.43542L8.80833 7.7875L9.63958 6.97083L10.4708 7.7875L12.5271 5.73125L13.3583 6.54792L10.4708 9.43542Z" fill="#0FB395"/>
</svg>
