<svg width="12" height="12" viewBox="0 0 12 12" fill="none" xmlns="http://www.w3.org/2000/svg">
<g clip-path="url(#clip0_4_71)">
<path d="M5.45999 1.43401C5.51502 1.33959 5.59383 1.26124 5.68859 1.20679C5.78334 1.15234 5.89071 1.12369 5.99999 1.12369C6.10927 1.12369 6.21665 1.15234 6.3114 1.20679C6.40615 1.26124 6.48497 1.33959 6.53999 1.43401L7.93749 3.83301L10.6515 4.42101C10.7582 4.4442 10.8571 4.49498 10.9381 4.56827C11.0191 4.64156 11.0795 4.73481 11.1132 4.83872C11.147 4.94262 11.1529 5.05356 11.1304 5.16047C11.1079 5.26737 11.0578 5.36651 10.985 5.44801L9.13499 7.51851L9.41499 10.281C9.42604 10.3898 9.40835 10.4996 9.36371 10.5994C9.31906 10.6992 9.24901 10.7855 9.16056 10.8498C9.0721 10.9141 8.96833 10.954 8.85962 10.9656C8.7509 10.9772 8.64103 10.9601 8.54099 10.916L5.99999 9.79601L3.45899 10.916C3.35895 10.9601 3.24909 10.9772 3.14037 10.9656C3.03165 10.954 2.92788 10.9141 2.83943 10.8498C2.75097 10.7855 2.68092 10.6992 2.63628 10.5994C2.59163 10.4996 2.57395 10.3898 2.58499 10.281L2.86499 7.51851L1.01499 5.44851C0.942106 5.36702 0.89187 5.26784 0.869299 5.16086C0.846729 5.05389 0.852613 4.94287 0.886364 4.83888C0.920116 4.7349 0.980554 4.64158 1.06165 4.56825C1.14274 4.49493 1.24164 4.44416 1.34849 4.42101L4.06249 3.83301L5.45999 1.43401Z" fill="#FAFF00"/>
</g>
<defs>
<clipPath id="clip0_4_71">
<rect width="12" height="12" fill="white"/>
</clipPath>
</defs>
</svg>
