<svg width="8" height="6" viewBox="0 0 8 6" fill="none" xmlns="http://www.w3.org/2000/svg">
<path d="M4.4039 5.42689C4.37485 5.40367 4.3518 5.3761 4.33607 5.34575C4.32035 5.3154 4.31225 5.28287 4.31225 5.25002C4.31225 5.21716 4.32035 5.18463 4.33607 5.15428C4.3518 5.12393 4.37485 5.09636 4.4039 5.07314L6.6832 3.25002L0.562498 3.25002C0.479618 3.25002 0.400132 3.22368 0.341527 3.17679C0.282922 3.12991 0.249998 3.06632 0.249998 3.00002C0.249998 2.93371 0.282922 2.87012 0.341527 2.82324C0.400132 2.77636 0.479618 2.75002 0.562498 2.75002L6.6832 2.75002L4.4039 0.926892C4.34527 0.879982 4.31232 0.816358 4.31232 0.750017C4.31232 0.683676 4.34527 0.620052 4.4039 0.573142C4.46254 0.526232 4.54207 0.499878 4.625 0.499878C4.70792 0.499878 4.78745 0.526232 4.84609 0.573142L7.65859 2.82314C7.68765 2.84636 7.7107 2.87393 7.72642 2.90428C7.74215 2.93463 7.75024 2.96716 7.75024 3.00002C7.75024 3.03287 7.74215 3.0654 7.72642 3.09575C7.7107 3.1261 7.68765 3.15367 7.65859 3.17689L4.84609 5.42689C4.81707 5.45014 4.7826 5.46858 4.74467 5.48116C4.70673 5.49374 4.66607 5.50021 4.625 5.50021C4.58393 5.50021 4.54327 5.49374 4.50533 5.48116C4.46739 5.46858 4.43293 5.45014 4.4039 5.42689Z" fill="black" fill-opacity="0.4"/>
</svg>
